<mxfile host="app.diagrams.net" agent="Mozilla/5.0 (Windows NT 10.0; Win64; x64) AppleWebKit/537.36 (KHTML, like Gecko) Chrome/130.0.0.0 Safari/537.36" version="24.8.3">
  <diagram name="Página-1" id="q8m7zb49M2XE0z0_L3MB">
    <mxGraphModel dx="819" dy="441" grid="1" gridSize="10" guides="1" tooltips="1" connect="1" arrows="1" fold="1" page="1" pageScale="1" pageWidth="827" pageHeight="1169" math="0" shadow="0">
      <root>
        <mxCell id="0" />
        <mxCell id="1" parent="0" />
        <mxCell id="vpod1VZVkbNUAeflvMq5-1" value="Usuário" style="shape=umlActor;verticalLabelPosition=bottom;verticalAlign=top;html=1;outlineConnect=0;" vertex="1" parent="1">
          <mxGeometry x="240" y="270" width="30" height="60" as="geometry" />
        </mxCell>
        <mxCell id="vpod1VZVkbNUAeflvMq5-10" style="rounded=0;orthogonalLoop=1;jettySize=auto;html=1;endArrow=none;endFill=0;" edge="1" parent="1" source="vpod1VZVkbNUAeflvMq5-2" target="vpod1VZVkbNUAeflvMq5-1">
          <mxGeometry relative="1" as="geometry" />
        </mxCell>
        <mxCell id="vpod1VZVkbNUAeflvMq5-2" value="Cadastrar Funcionário" style="ellipse;whiteSpace=wrap;html=1;" vertex="1" parent="1">
          <mxGeometry x="390" y="180" width="140" height="70" as="geometry" />
        </mxCell>
        <mxCell id="vpod1VZVkbNUAeflvMq5-9" style="rounded=0;orthogonalLoop=1;jettySize=auto;html=1;endArrow=none;endFill=0;" edge="1" parent="1" source="vpod1VZVkbNUAeflvMq5-3" target="vpod1VZVkbNUAeflvMq5-1">
          <mxGeometry relative="1" as="geometry" />
        </mxCell>
        <mxCell id="vpod1VZVkbNUAeflvMq5-3" value="Consultar Funcionário" style="ellipse;whiteSpace=wrap;html=1;" vertex="1" parent="1">
          <mxGeometry x="390" y="280" width="140" height="70" as="geometry" />
        </mxCell>
        <mxCell id="vpod1VZVkbNUAeflvMq5-8" style="rounded=0;orthogonalLoop=1;jettySize=auto;html=1;endArrow=none;endFill=0;" edge="1" parent="1" source="vpod1VZVkbNUAeflvMq5-4" target="vpod1VZVkbNUAeflvMq5-1">
          <mxGeometry relative="1" as="geometry" />
        </mxCell>
        <mxCell id="vpod1VZVkbNUAeflvMq5-4" value="Atualizar Funcionário" style="ellipse;whiteSpace=wrap;html=1;" vertex="1" parent="1">
          <mxGeometry x="344" y="370" width="140" height="70" as="geometry" />
        </mxCell>
        <mxCell id="vpod1VZVkbNUAeflvMq5-7" style="rounded=0;orthogonalLoop=1;jettySize=auto;html=1;endArrow=none;endFill=0;" edge="1" parent="1" source="vpod1VZVkbNUAeflvMq5-5" target="vpod1VZVkbNUAeflvMq5-1">
          <mxGeometry relative="1" as="geometry" />
        </mxCell>
        <mxCell id="vpod1VZVkbNUAeflvMq5-5" value="Deletar Funcionário" style="ellipse;whiteSpace=wrap;html=1;" vertex="1" parent="1">
          <mxGeometry x="50" y="270" width="140" height="70" as="geometry" />
        </mxCell>
        <mxCell id="vpod1VZVkbNUAeflvMq5-6" value="Solicitar Confirmação de Exclusão" style="ellipse;whiteSpace=wrap;html=1;" vertex="1" parent="1">
          <mxGeometry x="130" y="400" width="140" height="70" as="geometry" />
        </mxCell>
        <mxCell id="vpod1VZVkbNUAeflvMq5-11" value="&amp;lt;&amp;lt;include&amp;gt;&amp;gt;" style="edgeStyle=none;html=1;endArrow=open;verticalAlign=bottom;dashed=1;labelBackgroundColor=none;rounded=0;" edge="1" parent="1" source="vpod1VZVkbNUAeflvMq5-5" target="vpod1VZVkbNUAeflvMq5-6">
          <mxGeometry width="160" relative="1" as="geometry">
            <mxPoint x="80" y="370" as="sourcePoint" />
            <mxPoint x="240" y="370" as="targetPoint" />
          </mxGeometry>
        </mxCell>
      </root>
    </mxGraphModel>
  </diagram>
</mxfile>
